<svg width="21" height="20" viewBox="0 0 21 20" fill="none" xmlns="http://www.w3.org/2000/svg">
<g clip-path="url(#clip0)">
<path d="M4.7673 19.9998V6.5058H0.265713V19.9998H4.7673ZM2.51709 4.66232C4.08687 4.66232 5.06398 3.62614 5.06398 2.33126C5.03473 1.00718 4.08693 -0.000244141 2.54688 -0.000244141C1.00706 -0.000244141 0.00012207 1.0072 0.00012207 2.33126C0.00012207 3.6262 0.976995 4.66232 2.4877 4.66232H2.51695H2.51709ZM7.25891 19.9998H11.7605V12.4641C11.7605 12.0608 11.7897 11.6579 11.9086 11.3696C12.234 10.5638 12.9747 9.72926 14.2183 9.72926C15.8472 9.72926 16.4989 10.9667 16.4989 12.7807V19.9997H21.0002V12.2624C21.0002 8.11754 18.7793 6.189 15.8175 6.189C13.3891 6.189 12.3229 7.54144 11.7305 8.46258H11.7606V6.50552H7.25901C7.31809 7.77172 7.25901 19.9995 7.25901 19.9995L7.25891 19.9998Z" fill="white"/>
</g>
<defs>
<clipPath id="clip0">
<rect width="21" height="20" fill="white"/>
</clipPath>
</defs>
</svg>
