<svg width="25" height="25" viewBox="0 0 25 25" fill="none" xmlns="http://www.w3.org/2000/svg">
<path d="M24.475 6.46184C24.3298 5.94288 24.0531 5.4702 23.6717 5.08957C23.2902 4.70893 22.8169 4.43324 22.2977 4.28919C20.3485 3.76809 12.5125 3.76809 12.5125 3.76809C12.5125 3.76809 4.69142 3.75559 2.72189 4.28919C2.20345 4.43387 1.7311 4.70985 1.3505 5.09045C0.969904 5.47106 0.693922 5.9434 0.549235 6.46184C0.179079 8.45733 -0.0032291 10.4831 0.00470368 12.5126C0.00109189 14.5324 0.183371 16.5482 0.549235 18.5345C0.694391 19.0532 0.970454 19.5259 1.35092 19.9072C1.73139 20.2885 2.20349 20.5656 2.72189 20.7118C4.67111 21.2329 12.5125 21.2329 12.5125 21.2329C12.5125 21.2329 20.3289 21.2329 22.2977 20.7118C22.8169 20.5662 23.2899 20.2894 23.6713 19.9081C24.0526 19.5268 24.3294 19.0537 24.475 18.5345C24.8336 16.5493 25.0086 14.5306 24.9961 12.5126C25.0086 10.4814 24.8375 8.4595 24.475 6.46184ZM10.0094 16.2525V8.75637L16.532 12.5126L10.0094 16.2525Z" fill="white"/>
</svg>
