<svg width="25" height="25" viewBox="0 0 25 25" fill="none" xmlns="http://www.w3.org/2000/svg">
<path d="M5.46864 20.3125H19.5311C19.828 20.3126 20.1139 20.4254 20.3308 20.6281C20.5478 20.8308 20.6797 21.1083 20.6999 21.4045C20.7202 21.7007 20.6272 21.9936 20.4398 22.2239C20.2525 22.4542 19.9847 22.6048 19.6905 22.6453L19.5311 22.6562H5.46864C5.17173 22.6562 4.88592 22.5434 4.66896 22.3407C4.45201 22.138 4.32008 21.8605 4.29985 21.5642C4.27961 21.268 4.37257 20.9752 4.55994 20.7448C4.74731 20.5145 5.01512 20.3639 5.30926 20.3234L5.46864 20.3125H19.5311H5.46864ZM12.3405 1.57344L12.4999 1.5625C12.7831 1.56251 13.0567 1.66507 13.2701 1.8512C13.4835 2.03733 13.6223 2.29445 13.6608 2.575L13.6718 2.73438V14.7469L17.1952 11.225C17.3939 11.0264 17.6574 10.9057 17.9376 10.8851C18.2178 10.8644 18.4961 10.9451 18.7218 11.1125L18.853 11.225C19.0517 11.4237 19.1723 11.6872 19.1929 11.9674C19.2136 12.2476 19.1329 12.5259 18.9655 12.7516L18.853 12.8828L13.328 18.4062C13.1296 18.6047 12.8665 18.7254 12.5867 18.7463C12.3068 18.7672 12.0287 18.6871 11.803 18.5203L11.6718 18.4062L6.14676 12.8828C5.93709 12.6737 5.81434 12.393 5.80322 12.0971C5.79209 11.8012 5.8934 11.512 6.08678 11.2877C6.28016 11.0635 6.55127 10.9208 6.8456 10.8882C7.13993 10.8557 7.43566 10.9359 7.67332 11.1125L7.80457 11.225L11.328 14.75V2.73438C11.328 2.45119 11.4306 2.17759 11.6167 1.96417C11.8028 1.75075 12.06 1.61195 12.3405 1.57344L12.4999 1.5625L12.3405 1.57344Z" fill="white" fill-opacity="0.5"/>
</svg>
