<svg width="95" height="70" viewBox="0 0 95 70" fill="none" xmlns="http://www.w3.org/2000/svg">
<path d="M55.6317 11.6355H47.9059H41.9182C41.2019 11.664 40.8677 11.0102 40.8677 10.5933V5.05028C40.8677 4.35859 41.3834 3.83746 41.9373 3.83746L53.7886 3.84693C54.352 3.84693 54.9441 4.37754 54.9441 5.07871L54.9537 8.37608C54.9537 8.78351 55.3356 9.12462 55.6603 9.12462H58.1624C58.573 9.10567 58.8213 8.76456 58.8213 8.35713V8.64138V2.5204C58.8213 1.12755 57.9141 0 56.7968 0H39.0246C37.9072 0 37 1.12755 37 2.5204V14.7434C37 15.1508 37.2674 15.4825 37.5921 15.4825H53.6453C53.97 15.4825 54.7913 15.8141 54.8582 16.7806L54.9537 28.8141C54.9537 30.9365 54.0178 30.9744 52.3179 30.9744H43.5321C41.8036 30.9744 40.8868 31.0218 40.8868 28.8709L40.8772 18.7325C40.8772 18.325 40.648 18.0029 40.3138 18.0029H37.5921C37.2674 18.0029 37 18.3345 37 18.7419V30.188C37 33.4664 38.6808 35.0488 41.3165 35.0488H54.3329C56.9687 35.0488 58.8309 33.4664 58.8309 30.188V12.5262C58.8309 12.1188 58.6781 11.7113 57.9809 11.6355H55.6317Z" fill="#E41139"/>
<path d="M47.9056 23.8584C48.9763 23.8584 49.8442 22.9972 49.8442 21.9349C49.8442 20.8726 48.9763 20.0115 47.9056 20.0115C46.8349 20.0115 45.967 20.8726 45.967 21.9349C45.967 22.9972 46.8349 23.8584 47.9056 23.8584Z" fill="#E41139"/>
<path d="M48.0787 26.0002H47.735C47.4294 26.0002 47.1906 25.7538 47.1906 25.4601V22.9776C47.1906 22.6744 47.4389 22.4375 47.735 22.4375H48.0787C48.3843 22.4375 48.6231 22.6839 48.6231 22.9776V25.4601C48.6326 25.7633 48.3843 26.0002 48.0787 26.0002Z" fill="#E41139"/>
<path d="M0.74 60.58C0.74 62.62 1.68 64.12 3.8 64.12C5.96 64.12 6.9 62.62 6.9 60.58V53.42C6.9 51.38 5.96 49.88 3.8 49.88C1.68 49.88 0.74 51.38 0.74 53.42V60.58ZM1.66 53.36C1.66 51.84 2.26 50.72 3.8 50.72C5.36 50.72 5.98 51.84 5.98 53.36V60.64C5.98 62.16 5.36 63.28 3.8 63.28C2.26 63.28 1.66 62.16 1.66 60.64V53.36ZM8.91719 50V64H9.83719V58.24H11.5772C13.7972 58.24 14.8172 57.14 14.8172 54.92V53.4C14.8172 51.36 13.9772 50 11.8172 50H8.91719ZM9.83719 57.4V50.84H11.8172C13.3772 50.84 13.8972 51.82 13.8972 53.34V54.98C13.8972 56.68 13.1972 57.4 11.5772 57.4H9.83719ZM17.6614 56.48V50.84H22.2614V50H16.7414V64H22.2614V63.16H17.6614V57.32H21.4814V56.48H17.6614ZM25.0931 51.52L29.4731 64H30.4931V50H29.6531V61.82L25.4531 50H24.2531V64H25.0931V51.52ZM35.9056 64V50.84H38.7456V50H32.1256V50.84H34.9856V64H35.9056ZM40.3884 60.58C40.3884 62.62 41.3284 64.12 43.4484 64.12C45.6084 64.12 46.5484 62.62 46.5484 60.58V53.42C46.5484 51.38 45.6084 49.88 43.4484 49.88C41.3284 49.88 40.3884 51.38 40.3884 53.42V60.58ZM41.3084 53.36C41.3084 51.84 41.9084 50.72 43.4484 50.72C45.0084 50.72 45.6284 51.84 45.6284 53.36V60.64C45.6284 62.16 45.0084 63.28 43.4484 63.28C41.9084 63.28 41.3084 62.16 41.3084 60.64V53.36ZM49.4856 56.82V50.84H53.8856V50H48.5656V64H49.4856V57.66H53.1056V56.82H49.4856ZM56.6644 50H55.7444V60.58C55.7444 62.58 56.6044 64.12 58.7444 64.12C60.8844 64.12 61.7244 62.58 61.7244 60.58V50H60.8644V60.62C60.8644 62.12 60.3044 63.28 58.7644 63.28C57.2244 63.28 56.6644 62.12 56.6644 60.62V50ZM67.1439 64V50.84H69.9839V50H63.3639V50.84H66.2239V64H67.1439ZM72.5667 50H71.6467V60.58C71.6467 62.58 72.5067 64.12 74.6467 64.12C76.7867 64.12 77.6267 62.58 77.6267 60.58V50H76.7667V60.62C76.7667 62.12 76.2067 63.28 74.6667 63.28C73.1267 63.28 72.5667 62.12 72.5667 60.62V50ZM79.7063 50V64H80.6263V57.74H82.0863C83.6863 57.74 84.7063 58.26 84.7063 60.12V62.32C84.7063 63.08 84.7663 63.58 85.0063 64H85.9663C85.6663 63.54 85.6263 62.9 85.6263 62.32V60.14C85.6263 58.62 85.0463 57.6 83.6063 57.28C84.9863 56.96 85.6263 56.02 85.6263 54.38V53.16C85.6263 51.18 84.7663 50 82.6263 50H79.7063ZM80.6263 56.9V50.84H82.6063C84.1263 50.84 84.7063 51.74 84.7063 53.24V54.56C84.7063 56.44 83.7463 56.9 82.1063 56.9H80.6263ZM88.8411 56.48V50.84H93.4411V50H87.9211V64H93.4411V63.16H88.8411V57.32H92.6611V56.48H88.8411Z" fill="#E41139"/>
<path d="M0.24 60.58C0.24 61.6677 0.489478 62.6775 1.08336 63.4258C1.69156 64.1922 2.61028 64.62 3.8 64.62V63.62C2.86972 63.62 2.25844 63.2978 1.86664 62.8042C1.46052 62.2925 1.24 61.5323 1.24 60.58H0.24ZM3.8 64.62C5.00658 64.62 5.93555 64.1944 6.55013 63.4277C7.15053 62.6787 7.4 61.6676 7.4 60.58H6.4C6.4 61.5324 6.17947 62.2913 5.76987 62.8023C5.37445 63.2956 4.75342 63.62 3.8 63.62V64.62ZM7.4 60.58V53.42H6.4V60.58H7.4ZM7.4 53.42C7.4 52.3324 7.15053 51.3213 6.55013 50.5723C5.93555 49.8056 5.00658 49.38 3.8 49.38V50.38C4.75342 50.38 5.37445 50.7044 5.76987 51.1977C6.17947 51.7087 6.4 52.4676 6.4 53.42H7.4ZM3.8 49.38C2.61028 49.38 1.69156 49.8078 1.08336 50.5742C0.489478 51.3225 0.24 52.3323 0.24 53.42H1.24C1.24 52.4677 1.46052 51.7075 1.86664 51.1958C2.25844 50.7022 2.86972 50.38 3.8 50.38V49.38ZM0.24 53.42V60.58H1.24V53.42H0.24ZM2.16 53.36C2.16 52.6532 2.30156 52.1144 2.55659 51.7645C2.79233 51.441 3.16704 51.22 3.8 51.22V50.22C2.89296 50.22 2.19767 50.559 1.74841 51.1755C1.31844 51.7656 1.16 52.5468 1.16 53.36H2.16ZM3.8 51.22C4.44582 51.22 4.8317 51.4433 5.07398 51.7686C5.33454 52.1185 5.48 52.656 5.48 53.36H6.48C6.48 52.544 6.31546 51.7615 5.87602 51.1714C5.4183 50.5567 4.71418 50.22 3.8 50.22V51.22ZM5.48 53.36V60.64H6.48V53.36H5.48ZM5.48 60.64C5.48 61.344 5.33454 61.8815 5.07398 62.2314C4.8317 62.5567 4.44582 62.78 3.8 62.78V63.78C4.71418 63.78 5.4183 63.4433 5.87602 62.8286C6.31546 62.2385 6.48 61.456 6.48 60.64H5.48ZM3.8 62.78C3.16704 62.78 2.79233 62.559 2.55659 62.2355C2.30156 61.8856 2.16 61.3468 2.16 60.64H1.16C1.16 61.4532 1.31844 62.2344 1.74841 62.8245C2.19767 63.441 2.89296 63.78 3.8 63.78V62.78ZM2.16 60.64V53.36H1.16V60.64H2.16ZM8.91719 50V49.5H8.41719V50H8.91719ZM8.91719 64H8.41719V64.5H8.91719V64ZM9.83719 64V64.5H10.3372V64H9.83719ZM9.83719 58.24V57.74H9.33719V58.24H9.83719ZM9.83719 57.4H9.33719V57.9H9.83719V57.4ZM9.83719 50.84V50.34H9.33719V50.84H9.83719ZM8.41719 50V64H9.41719V50H8.41719ZM8.91719 64.5H9.83719V63.5H8.91719V64.5ZM10.3372 64V58.24H9.33719V64H10.3372ZM9.83719 58.74H11.5772V57.74H9.83719V58.74ZM11.5772 58.74C12.763 58.74 13.7282 58.4458 14.3897 57.7595C15.0477 57.0768 15.3172 56.0967 15.3172 54.92H14.3172C14.3172 55.9633 14.0767 56.6432 13.6697 57.0655C13.2662 57.4842 12.6113 57.74 11.5772 57.74V58.74ZM15.3172 54.92V53.4H14.3172V54.92H15.3172ZM15.3172 53.4C15.3172 52.3238 15.0976 51.3415 14.5163 50.6211C13.919 49.8805 13.0085 49.5 11.8172 49.5V50.5C12.7858 50.5 13.3754 50.7995 13.738 51.2489C14.1168 51.7185 14.3172 52.4362 14.3172 53.4H15.3172ZM11.8172 49.5H8.91719V50.5H11.8172V49.5ZM10.3372 57.4V50.84H9.33719V57.4H10.3372ZM9.83719 51.34H11.8172V50.34H9.83719V51.34ZM11.8172 51.34C12.4847 51.34 12.8352 51.5429 13.0416 51.8193C13.2706 52.1258 13.3972 52.6197 13.3972 53.34H14.3972C14.3972 52.5403 14.2637 51.7842 13.8427 51.2207C13.3992 50.6271 12.7096 50.34 11.8172 50.34V51.34ZM13.3972 53.34V54.98H14.3972V53.34H13.3972ZM13.3972 54.98C13.3972 55.7766 13.2307 56.2247 12.9843 56.4809C12.7423 56.7325 12.3252 56.9 11.5772 56.9V57.9C12.4492 57.9 13.192 57.7075 13.7051 57.1741C14.2137 56.6453 14.3972 55.8834 14.3972 54.98H13.3972ZM11.5772 56.9H9.83719V57.9H11.5772V56.9ZM17.6614 56.48H17.1614V56.98H17.6614V56.48ZM17.6614 50.84V50.34H17.1614V50.84H17.6614ZM22.2614 50.84V51.34H22.7614V50.84H22.2614ZM22.2614 50H22.7614V49.5H22.2614V50ZM16.7414 50V49.5H16.2414V50H16.7414ZM16.7414 64H16.2414V64.5H16.7414V64ZM22.2614 64V64.5H22.7614V64H22.2614ZM22.2614 63.16H22.7614V62.66H22.2614V63.16ZM17.6614 63.16H17.1614V63.66H17.6614V63.16ZM17.6614 57.32V56.82H17.1614V57.32H17.6614ZM21.4814 57.32V57.82H21.9814V57.32H21.4814ZM21.4814 56.48H21.9814V55.98H21.4814V56.48ZM18.1614 56.48V50.84H17.1614V56.48H18.1614ZM17.6614 51.34H22.2614V50.34H17.6614V51.34ZM22.7614 50.84V50H21.7614V50.84H22.7614ZM22.2614 49.5H16.7414V50.5H22.2614V49.5ZM16.2414 50V64H17.2414V50H16.2414ZM16.7414 64.5H22.2614V63.5H16.7414V64.5ZM22.7614 64V63.16H21.7614V64H22.7614ZM22.2614 62.66H17.6614V63.66H22.2614V62.66ZM18.1614 63.16V57.32H17.1614V63.16H18.1614ZM17.6614 57.82H21.4814V56.82H17.6614V57.82ZM21.9814 57.32V56.48H20.9814V57.32H21.9814ZM21.4814 55.98H17.6614V56.98H21.4814V55.98ZM25.0931 51.52L25.5649 51.3544L24.5931 51.52H25.0931ZM29.4731 64L29.0013 64.1656L29.1187 64.5H29.4731V64ZM30.4931 64V64.5H30.9931V64H30.4931ZM30.4931 50H30.9931V49.5H30.4931V50ZM29.6531 50V49.5H29.1531V50H29.6531ZM29.6531 61.82L29.182 61.9874L30.1531 61.82H29.6531ZM25.4531 50L25.9243 49.8326L25.8061 49.5H25.4531V50ZM24.2531 50V49.5H23.7531V50H24.2531ZM24.2531 64H23.7531V64.5H24.2531V64ZM25.0931 64V64.5H25.5931V64H25.0931ZM24.6213 51.6856L29.0013 64.1656L29.9449 63.8344L25.5649 51.3544L24.6213 51.6856ZM29.4731 64.5H30.4931V63.5H29.4731V64.5ZM30.9931 64V50H29.9931V64H30.9931ZM30.4931 49.5H29.6531V50.5H30.4931V49.5ZM29.1531 50V61.82H30.1531V50H29.1531ZM30.1243 61.6526L25.9243 49.8326L24.982 50.1674L29.182 61.9874L30.1243 61.6526ZM25.4531 49.5H24.2531V50.5H25.4531V49.5ZM23.7531 50V64H24.7531V50H23.7531ZM24.2531 64.5H25.0931V63.5H24.2531V64.5ZM25.5931 64V51.52H24.5931V64H25.5931ZM35.9056 64V64.5H36.4056V64H35.9056ZM35.9056 50.84V50.34H35.4056V50.84H35.9056ZM38.7456 50.84V51.34H39.2456V50.84H38.7456ZM38.7456 50H39.2456V49.5H38.7456V50ZM32.1256 50V49.5H31.6256V50H32.1256ZM32.1256 50.84H31.6256V51.34H32.1256V50.84ZM34.9856 50.84H35.4856V50.34H34.9856V50.84ZM34.9856 64H34.4856V64.5H34.9856V64ZM36.4056 64V50.84H35.4056V64H36.4056ZM35.9056 51.34H38.7456V50.34H35.9056V51.34ZM39.2456 50.84V50H38.2456V50.84H39.2456ZM38.7456 49.5H32.1256V50.5H38.7456V49.5ZM31.6256 50V50.84H32.6256V50H31.6256ZM32.1256 51.34H34.9856V50.34H32.1256V51.34ZM34.4856 50.84V64H35.4856V50.84H34.4856ZM34.9856 64.5H35.9056V63.5H34.9856V64.5ZM39.8884 60.58C39.8884 61.6677 40.1379 62.6775 40.7318 63.4258C41.34 64.1922 42.2587 64.62 43.4484 64.62V63.62C42.5182 63.62 41.9069 63.2978 41.5151 62.8042C41.109 62.2925 40.8884 61.5323 40.8884 60.58H39.8884ZM43.4484 64.62C44.655 64.62 45.584 64.1944 46.1986 63.4277C46.799 62.6787 47.0484 61.6676 47.0484 60.58H46.0484C46.0484 61.5324 45.8279 62.2913 45.4183 62.8023C45.0229 63.2956 44.4019 63.62 43.4484 63.62V64.62ZM47.0484 60.58V53.42H46.0484V60.58H47.0484ZM47.0484 53.42C47.0484 52.3324 46.799 51.3213 46.1986 50.5723C45.584 49.8056 44.655 49.38 43.4484 49.38V50.38C44.4019 50.38 45.0229 50.7044 45.4183 51.1977C45.8279 51.7087 46.0484 52.4676 46.0484 53.42H47.0484ZM43.4484 49.38C42.2587 49.38 41.34 49.8078 40.7318 50.5742C40.1379 51.3225 39.8884 52.3323 39.8884 53.42H40.8884C40.8884 52.4677 41.109 51.7075 41.5151 51.1958C41.9069 50.7022 42.5182 50.38 43.4484 50.38V49.38ZM39.8884 53.42V60.58H40.8884V53.42H39.8884ZM41.8084 53.36C41.8084 52.6532 41.95 52.1144 42.205 51.7645C42.4408 51.441 42.8155 51.22 43.4484 51.22V50.22C42.5414 50.22 41.8461 50.559 41.3968 51.1755C40.9669 51.7656 40.8084 52.5468 40.8084 53.36H41.8084ZM43.4484 51.22C44.0943 51.22 44.4801 51.4433 44.7224 51.7686C44.983 52.1185 45.1284 52.656 45.1284 53.36H46.1284C46.1284 52.544 45.9639 51.7615 45.5245 51.1714C45.0667 50.5567 44.3626 50.22 43.4484 50.22V51.22ZM45.1284 53.36V60.64H46.1284V53.36H45.1284ZM45.1284 60.64C45.1284 61.344 44.983 61.8815 44.7224 62.2314C44.4801 62.5567 44.0943 62.78 43.4484 62.78V63.78C44.3626 63.78 45.0667 63.4433 45.5245 62.8286C45.9639 62.2385 46.1284 61.456 46.1284 60.64H45.1284ZM43.4484 62.78C42.8155 62.78 42.4408 62.559 42.205 62.2355C41.95 61.8856 41.8084 61.3468 41.8084 60.64H40.8084C40.8084 61.4532 40.9669 62.2344 41.3968 62.8245C41.8461 63.441 42.5414 63.78 43.4484 63.78V62.78ZM41.8084 60.64V53.36H40.8084V60.64H41.8084ZM49.4856 56.82H48.9856V57.32H49.4856V56.82ZM49.4856 50.84V50.34H48.9856V50.84H49.4856ZM53.8856 50.84V51.34H54.3856V50.84H53.8856ZM53.8856 50H54.3856V49.5H53.8856V50ZM48.5656 50V49.5H48.0656V50H48.5656ZM48.5656 64H48.0656V64.5H48.5656V64ZM49.4856 64V64.5H49.9856V64H49.4856ZM49.4856 57.66V57.16H48.9856V57.66H49.4856ZM53.1056 57.66V58.16H53.6056V57.66H53.1056ZM53.1056 56.82H53.6056V56.32H53.1056V56.82ZM49.9856 56.82V50.84H48.9856V56.82H49.9856ZM49.4856 51.34H53.8856V50.34H49.4856V51.34ZM54.3856 50.84V50H53.3856V50.84H54.3856ZM53.8856 49.5H48.5656V50.5H53.8856V49.5ZM48.0656 50V64H49.0656V50H48.0656ZM48.5656 64.5H49.4856V63.5H48.5656V64.5ZM49.9856 64V57.66H48.9856V64H49.9856ZM49.4856 58.16H53.1056V57.16H49.4856V58.16ZM53.6056 57.66V56.82H52.6056V57.66H53.6056ZM53.1056 56.32H49.4856V57.32H53.1056V56.32ZM56.6644 50H57.1644V49.5H56.6644V50ZM55.7444 50V49.5H55.2444V50H55.7444ZM61.7244 50H62.2244V49.5H61.7244V50ZM60.8644 50V49.5H60.3644V50H60.8644ZM56.6644 49.5H55.7444V50.5H56.6644V49.5ZM55.2444 50V60.58H56.2444V50H55.2444ZM55.2444 60.58C55.2444 61.6408 55.4709 62.6485 56.0438 63.4025C56.6335 64.1787 57.5404 64.62 58.7444 64.62V63.62C57.8083 63.62 57.2152 63.2913 56.84 62.7975C56.4479 62.2815 56.2444 61.5192 56.2444 60.58H55.2444ZM58.7444 64.62C59.9487 64.62 60.8516 64.1783 61.4365 63.4005C62.0038 62.6461 62.2244 61.6386 62.2244 60.58H61.2244C61.2244 61.5214 61.025 62.2839 60.6373 62.7995C60.2671 63.2917 59.6801 63.62 58.7444 63.62V64.62ZM62.2244 60.58V50H61.2244V60.58H62.2244ZM61.7244 49.5H60.8644V50.5H61.7244V49.5ZM60.3644 50V60.62H61.3644V50H60.3644ZM60.3644 60.62C60.3644 61.3214 60.2311 61.8683 59.9816 62.2268C59.7529 62.5552 59.3897 62.78 58.7644 62.78V63.78C59.679 63.78 60.3659 63.4248 60.8022 62.7982C61.2176 62.2017 61.3644 61.4186 61.3644 60.62H60.3644ZM58.7644 62.78C58.139 62.78 57.7759 62.5552 57.5472 62.2268C57.2976 61.8683 57.1644 61.3214 57.1644 60.62H56.1644C56.1644 61.4186 56.3111 62.2017 56.7266 62.7982C57.1629 63.4248 57.8497 63.78 58.7644 63.78V62.78ZM57.1644 60.62V50H56.1644V60.62H57.1644ZM67.1439 64V64.5H67.6439V64H67.1439ZM67.1439 50.84V50.34H66.6439V50.84H67.1439ZM69.9839 50.84V51.34H70.4839V50.84H69.9839ZM69.9839 50H70.4839V49.5H69.9839V50ZM63.3639 50V49.5H62.8639V50H63.3639ZM63.3639 50.84H62.8639V51.34H63.3639V50.84ZM66.2239 50.84H66.7239V50.34H66.2239V50.84ZM66.2239 64H65.7239V64.5H66.2239V64ZM67.6439 64V50.84H66.6439V64H67.6439ZM67.1439 51.34H69.9839V50.34H67.1439V51.34ZM70.4839 50.84V50H69.4839V50.84H70.4839ZM69.9839 49.5H63.3639V50.5H69.9839V49.5ZM62.8639 50V50.84H63.8639V50H62.8639ZM63.3639 51.34H66.2239V50.34H63.3639V51.34ZM65.7239 50.84V64H66.7239V50.84H65.7239ZM66.2239 64.5H67.1439V63.5H66.2239V64.5ZM72.5667 50H73.0667V49.5H72.5667V50ZM71.6467 50V49.5H71.1467V50H71.6467ZM77.6267 50H78.1267V49.5H77.6267V50ZM76.7667 50V49.5H76.2667V50H76.7667ZM72.5667 49.5H71.6467V50.5H72.5667V49.5ZM71.1467 50V60.58H72.1467V50H71.1467ZM71.1467 60.58C71.1467 61.6408 71.3732 62.6485 71.9461 63.4025C72.5359 64.1787 73.4428 64.62 74.6467 64.62V63.62C73.7107 63.62 73.1175 63.2913 72.7423 62.7975C72.3502 62.2815 72.1467 61.5192 72.1467 60.58H71.1467ZM74.6467 64.62C75.851 64.62 76.754 64.1783 77.3388 63.4005C77.9061 62.6461 78.1267 61.6386 78.1267 60.58H77.1267C77.1267 61.5214 76.9273 62.2839 76.5396 62.7995C76.1695 63.2917 75.5824 63.62 74.6467 63.62V64.62ZM78.1267 60.58V50H77.1267V60.58H78.1267ZM77.6267 49.5H76.7667V50.5H77.6267V49.5ZM76.2667 50V60.62H77.2667V50H76.2667ZM76.2667 60.62C76.2667 61.3214 76.1335 61.8683 75.8839 62.2268C75.6552 62.5552 75.2921 62.78 74.6667 62.78V63.78C75.5814 63.78 76.2682 63.4248 76.7045 62.7982C77.1199 62.2017 77.2667 61.4186 77.2667 60.62H76.2667ZM74.6667 62.78C74.0414 62.78 73.6782 62.5552 73.4495 62.2268C73.1999 61.8683 73.0667 61.3214 73.0667 60.62H72.0667C72.0667 61.4186 72.2135 62.2017 72.6289 62.7982C73.0652 63.4248 73.7521 63.78 74.6667 63.78V62.78ZM73.0667 60.62V50H72.0667V60.62H73.0667ZM79.7063 50V49.5H79.2063V50H79.7063ZM79.7063 64H79.2063V64.5H79.7063V64ZM80.6263 64V64.5H81.1263V64H80.6263ZM80.6263 57.74V57.24H80.1263V57.74H80.6263ZM85.0062 64L84.5721 64.2481L84.7161 64.5H85.0062V64ZM85.9662 64V64.5H86.8893L86.3851 63.7269L85.9662 64ZM83.6062 57.28L83.4933 56.7929L83.4978 57.7681L83.6062 57.28ZM80.6263 56.9H80.1263V57.4H80.6263V56.9ZM80.6263 50.84V50.34H80.1263V50.84H80.6263ZM79.2063 50V64H80.2063V50H79.2063ZM79.7063 64.5H80.6263V63.5H79.7063V64.5ZM81.1263 64V57.74H80.1263V64H81.1263ZM80.6263 58.24H82.0863V57.24H80.6263V58.24ZM82.0863 58.24C82.8521 58.24 83.3648 58.3687 83.6847 58.6236C83.979 58.8581 84.2063 59.2797 84.2063 60.12H85.2063C85.2063 59.1003 84.9235 58.3319 84.3078 57.8414C83.7177 57.3713 82.9204 57.24 82.0863 57.24V58.24ZM84.2063 60.12V62.32H85.2063V60.12H84.2063ZM84.2063 62.32C84.2063 63.089 84.2621 63.7055 84.5721 64.2481L85.4404 63.7519C85.2704 63.4545 85.2063 63.071 85.2063 62.32H84.2063ZM85.0062 64.5H85.9662V63.5H85.0062V64.5ZM86.3851 63.7269C86.1758 63.406 86.1263 62.9095 86.1263 62.32H85.1263C85.1263 62.8905 85.1567 63.674 85.5474 64.2731L86.3851 63.7269ZM86.1263 62.32V60.14H85.1263V62.32H86.1263ZM86.1263 60.14C86.1263 59.323 85.9713 58.5781 85.5716 57.9817C85.1634 57.3725 84.5381 56.9749 83.7147 56.7919L83.4978 57.7681C84.1144 57.9051 84.4991 58.1775 84.7409 58.5383C84.9912 58.9119 85.1263 59.437 85.1263 60.14H86.1263ZM83.7192 57.7671C84.5025 57.5854 85.1268 57.213 85.5448 56.6097C85.9555 56.0168 86.1263 55.2591 86.1263 54.38H85.1263C85.1263 55.1409 84.977 55.6732 84.7227 56.0403C84.4757 56.3969 84.09 56.6546 83.4933 56.7929L83.7192 57.7671ZM86.1263 54.38V53.16H85.1263V54.38H86.1263ZM86.1263 53.16C86.1263 52.109 85.8995 51.1766 85.3024 50.5052C84.695 49.8224 83.7867 49.5 82.6263 49.5V50.5C83.6058 50.5 84.1975 50.7676 84.5551 51.1698C84.923 51.5834 85.1263 52.231 85.1263 53.16H86.1263ZM82.6263 49.5H79.7063V50.5H82.6263V49.5ZM81.1263 56.9V50.84H80.1263V56.9H81.1263ZM80.6263 51.34H82.6062V50.34H80.6263V51.34ZM82.6062 51.34C83.2644 51.34 83.625 51.5303 83.8381 51.7927C84.0683 52.0761 84.2063 52.5398 84.2063 53.24H85.2063C85.2063 52.4402 85.0542 51.7039 84.6144 51.1623C84.1575 50.5997 83.4681 50.34 82.6062 50.34V51.34ZM84.2063 53.24V54.56H85.2063V53.24H84.2063ZM84.2063 54.56C84.2063 55.4216 83.9879 55.8251 83.7121 56.042C83.4068 56.2822 82.9047 56.4 82.1062 56.4V57.4C82.9478 57.4 83.7457 57.2878 84.3304 56.828C84.9446 56.3449 85.2063 55.5784 85.2063 54.56H84.2063ZM82.1062 56.4H80.6263V57.4H82.1062V56.4ZM88.8411 56.48H88.3411V56.98H88.8411V56.48ZM88.8411 50.84V50.34H88.3411V50.84H88.8411ZM93.4411 50.84V51.34H93.9411V50.84H93.4411ZM93.4411 50H93.9411V49.5H93.4411V50ZM87.9211 50V49.5H87.4211V50H87.9211ZM87.9211 64H87.4211V64.5H87.9211V64ZM93.4411 64V64.5H93.9411V64H93.4411ZM93.4411 63.16H93.9411V62.66H93.4411V63.16ZM88.8411 63.16H88.3411V63.66H88.8411V63.16ZM88.8411 57.32V56.82H88.3411V57.32H88.8411ZM92.6611 57.32V57.82H93.1611V57.32H92.6611ZM92.6611 56.48H93.1611V55.98H92.6611V56.48ZM89.3411 56.48V50.84H88.3411V56.48H89.3411ZM88.8411 51.34H93.4411V50.34H88.8411V51.34ZM93.9411 50.84V50H92.9411V50.84H93.9411ZM93.4411 49.5H87.9211V50.5H93.4411V49.5ZM87.4211 50V64H88.4211V50H87.4211ZM87.9211 64.5H93.4411V63.5H87.9211V64.5ZM93.9411 64V63.16H92.9411V64H93.9411ZM93.4411 62.66H88.8411V63.66H93.4411V62.66ZM89.3411 63.16V57.32H88.3411V63.16H89.3411ZM88.8411 57.82H92.6611V56.82H88.8411V57.82ZM93.1611 57.32V56.48H92.1611V57.32H93.1611ZM92.6611 55.98H88.8411V56.98H92.6611V55.98Z" fill="#E41139"/>
</svg>
